<mxfile host="app.diagrams.net" modified="2024-01-18T19:36:54.235Z" agent="Mozilla/5.0 (Macintosh; Intel Mac OS X 10_15_7) AppleWebKit/537.36 (KHTML, like Gecko) Chrome/120.0.0.0 Safari/537.36" etag="xK03rc6jbJ71RmP49aZp" version="22.1.21" type="github">
  <diagram id="6a731a19-8d31-9384-78a2-239565b7b9f0" name="Page-1">
    <mxGraphModel dx="1982" dy="1040" grid="1" gridSize="10" guides="1" tooltips="1" connect="1" arrows="1" fold="1" page="1" pageScale="1" pageWidth="1169" pageHeight="827" background="none" math="0" shadow="0">
      <root>
        <mxCell id="0" />
        <mxCell id="1" parent="0" />
        <mxCell id="v3DVIP-tIBE_nXOvIOAh-63" value="" style="edgeStyle=orthogonalEdgeStyle;rounded=0;orthogonalLoop=1;jettySize=auto;html=1;" edge="1" parent="1" source="2" target="v3DVIP-tIBE_nXOvIOAh-62">
          <mxGeometry relative="1" as="geometry" />
        </mxCell>
        <mxCell id="2" value="Game Start" style="shape=mxgraph.flowchart.terminator;strokeWidth=2;gradientColor=none;gradientDirection=north;fontStyle=0;html=1;" parent="1" vertex="1">
          <mxGeometry x="394.5" y="90" width="120" height="30" as="geometry" />
        </mxCell>
        <mxCell id="40" value="end" style="shape=mxgraph.flowchart.terminator;strokeWidth=2;gradientColor=none;gradientDirection=north;fontStyle=0;html=1;" parent="1" vertex="1">
          <mxGeometry x="180" y="1570" width="120" height="30" as="geometry" />
        </mxCell>
        <mxCell id="43" value="" style="edgeStyle=elbowEdgeStyle;elbow=vertical;exitX=0.5;exitY=1;entryX=0.5;entryY=0;entryPerimeter=0;fontStyle=1;strokeColor=#003366;strokeWidth=1;html=1;exitDx=0;exitDy=0;" parent="1" source="v3DVIP-tIBE_nXOvIOAh-83" target="40" edge="1">
          <mxGeometry width="100" height="100" as="geometry">
            <mxPoint x="240" y="1550" as="sourcePoint" />
            <mxPoint x="20" y="-260" as="targetPoint" />
          </mxGeometry>
        </mxCell>
        <mxCell id="v3DVIP-tIBE_nXOvIOAh-75" value="" style="edgeStyle=orthogonalEdgeStyle;rounded=0;orthogonalLoop=1;jettySize=auto;html=1;" edge="1" parent="1" source="v3DVIP-tIBE_nXOvIOAh-56">
          <mxGeometry relative="1" as="geometry">
            <mxPoint x="456.25" y="470" as="targetPoint" />
          </mxGeometry>
        </mxCell>
        <mxCell id="v3DVIP-tIBE_nXOvIOAh-77" value="" style="edgeStyle=orthogonalEdgeStyle;rounded=0;orthogonalLoop=1;jettySize=auto;html=1;" edge="1" parent="1" source="v3DVIP-tIBE_nXOvIOAh-56">
          <mxGeometry relative="1" as="geometry">
            <mxPoint x="619.9880059970019" y="395.0344827586209" as="targetPoint" />
          </mxGeometry>
        </mxCell>
        <mxCell id="v3DVIP-tIBE_nXOvIOAh-56" value="Is Player X&amp;nbsp; A.I ?&amp;nbsp;" style="rhombus;whiteSpace=wrap;html=1;" vertex="1" parent="1">
          <mxGeometry x="381.75" y="360" width="149" height="70" as="geometry" />
        </mxCell>
        <mxCell id="v3DVIP-tIBE_nXOvIOAh-72" value="" style="edgeStyle=orthogonalEdgeStyle;rounded=0;orthogonalLoop=1;jettySize=auto;html=1;" edge="1" parent="1" source="v3DVIP-tIBE_nXOvIOAh-62" target="v3DVIP-tIBE_nXOvIOAh-71">
          <mxGeometry relative="1" as="geometry" />
        </mxCell>
        <mxCell id="v3DVIP-tIBE_nXOvIOAh-62" value="1. Select GameMode&lt;br&gt;2. Select using O/X" style="shape=parallelogram;perimeter=parallelogramPerimeter;whiteSpace=wrap;html=1;fixedSize=1;strokeWidth=2;gradientColor=none;gradientDirection=north;fontStyle=0;" vertex="1" parent="1">
          <mxGeometry x="381.75" y="160" width="145.5" height="75" as="geometry" />
        </mxCell>
        <mxCell id="v3DVIP-tIBE_nXOvIOAh-73" value="" style="edgeStyle=orthogonalEdgeStyle;rounded=0;orthogonalLoop=1;jettySize=auto;html=1;" edge="1" parent="1" source="v3DVIP-tIBE_nXOvIOAh-71" target="v3DVIP-tIBE_nXOvIOAh-56">
          <mxGeometry relative="1" as="geometry" />
        </mxCell>
        <mxCell id="v3DVIP-tIBE_nXOvIOAh-71" value="Player X Start" style="whiteSpace=wrap;html=1;strokeWidth=2;gradientColor=none;gradientDirection=north;fontStyle=0;" vertex="1" parent="1">
          <mxGeometry x="394.5" y="270" width="120" height="60" as="geometry" />
        </mxCell>
        <mxCell id="v3DVIP-tIBE_nXOvIOAh-81" value="" style="edgeStyle=orthogonalEdgeStyle;rounded=0;orthogonalLoop=1;jettySize=auto;html=1;" edge="1" parent="1">
          <mxGeometry relative="1" as="geometry">
            <mxPoint x="456.2758620689656" y="530" as="sourcePoint" />
            <mxPoint x="456.25" y="610" as="targetPoint" />
          </mxGeometry>
        </mxCell>
        <mxCell id="v3DVIP-tIBE_nXOvIOAh-79" style="edgeStyle=orthogonalEdgeStyle;rounded=0;orthogonalLoop=1;jettySize=auto;html=1;entryX=1;entryY=0.5;entryDx=0;entryDy=0;" edge="1" parent="1" target="v3DVIP-tIBE_nXOvIOAh-82">
          <mxGeometry relative="1" as="geometry">
            <mxPoint x="516.25" y="655" as="targetPoint" />
            <mxPoint x="690" y="423.75" as="sourcePoint" />
            <Array as="points">
              <mxPoint x="680" y="424" />
              <mxPoint x="680" y="650" />
            </Array>
          </mxGeometry>
        </mxCell>
        <mxCell id="v3DVIP-tIBE_nXOvIOAh-84" value="" style="edgeStyle=orthogonalEdgeStyle;rounded=0;orthogonalLoop=1;jettySize=auto;html=1;" edge="1" parent="1" source="v3DVIP-tIBE_nXOvIOAh-82" target="v3DVIP-tIBE_nXOvIOAh-83">
          <mxGeometry relative="1" as="geometry" />
        </mxCell>
        <mxCell id="v3DVIP-tIBE_nXOvIOAh-87" value="" style="edgeStyle=orthogonalEdgeStyle;rounded=0;orthogonalLoop=1;jettySize=auto;html=1;" edge="1" parent="1" source="v3DVIP-tIBE_nXOvIOAh-82" target="v3DVIP-tIBE_nXOvIOAh-86">
          <mxGeometry relative="1" as="geometry" />
        </mxCell>
        <mxCell id="v3DVIP-tIBE_nXOvIOAh-82" value="Check winner" style="rhombus;whiteSpace=wrap;html=1;" vertex="1" parent="1">
          <mxGeometry x="388.25" y="610" width="139" height="80" as="geometry" />
        </mxCell>
        <mxCell id="v3DVIP-tIBE_nXOvIOAh-83" value="Game Over" style="whiteSpace=wrap;html=1;" vertex="1" parent="1">
          <mxGeometry x="180" y="1440" width="120" height="60" as="geometry" />
        </mxCell>
        <mxCell id="v3DVIP-tIBE_nXOvIOAh-85" value="Yes" style="text;strokeColor=none;align=center;fillColor=none;html=1;verticalAlign=middle;whiteSpace=wrap;rounded=0;" vertex="1" parent="1">
          <mxGeometry x="311" y="610" width="60" height="30" as="geometry" />
        </mxCell>
        <mxCell id="v3DVIP-tIBE_nXOvIOAh-89" value="" style="edgeStyle=orthogonalEdgeStyle;rounded=0;orthogonalLoop=1;jettySize=auto;html=1;" edge="1" parent="1" source="v3DVIP-tIBE_nXOvIOAh-86">
          <mxGeometry relative="1" as="geometry">
            <mxPoint x="457.75" y="880" as="targetPoint" />
          </mxGeometry>
        </mxCell>
        <mxCell id="v3DVIP-tIBE_nXOvIOAh-86" value="Next Player" style="whiteSpace=wrap;html=1;" vertex="1" parent="1">
          <mxGeometry x="397.75" y="750" width="120" height="60" as="geometry" />
        </mxCell>
        <mxCell id="v3DVIP-tIBE_nXOvIOAh-94" value="" style="edgeStyle=orthogonalEdgeStyle;rounded=0;orthogonalLoop=1;jettySize=auto;html=1;" edge="1" parent="1" source="v3DVIP-tIBE_nXOvIOAh-90" target="v3DVIP-tIBE_nXOvIOAh-93">
          <mxGeometry relative="1" as="geometry" />
        </mxCell>
        <mxCell id="v3DVIP-tIBE_nXOvIOAh-97" value="" style="edgeStyle=orthogonalEdgeStyle;rounded=0;orthogonalLoop=1;jettySize=auto;html=1;" edge="1" parent="1" source="v3DVIP-tIBE_nXOvIOAh-90">
          <mxGeometry relative="1" as="geometry">
            <mxPoint x="457.75" y="1035" as="targetPoint" />
          </mxGeometry>
        </mxCell>
        <mxCell id="v3DVIP-tIBE_nXOvIOAh-90" value="Is Player O A.I ?" style="rhombus;whiteSpace=wrap;html=1;" vertex="1" parent="1">
          <mxGeometry x="383.25" y="880" width="149" height="70" as="geometry" />
        </mxCell>
        <mxCell id="v3DVIP-tIBE_nXOvIOAh-91" value="Yes" style="text;strokeColor=none;align=center;fillColor=none;html=1;verticalAlign=middle;whiteSpace=wrap;rounded=0;" vertex="1" parent="1">
          <mxGeometry x="550" y="360" width="60" height="30" as="geometry" />
        </mxCell>
        <mxCell id="v3DVIP-tIBE_nXOvIOAh-92" value="No" style="text;strokeColor=none;align=center;fillColor=none;html=1;verticalAlign=middle;whiteSpace=wrap;rounded=0;" vertex="1" parent="1">
          <mxGeometry x="450" y="427.5" width="60" height="30" as="geometry" />
        </mxCell>
        <mxCell id="v3DVIP-tIBE_nXOvIOAh-113" style="edgeStyle=orthogonalEdgeStyle;rounded=0;orthogonalLoop=1;jettySize=auto;html=1;exitX=0.5;exitY=1;exitDx=0;exitDy=0;" edge="1" parent="1" source="v3DVIP-tIBE_nXOvIOAh-93">
          <mxGeometry relative="1" as="geometry">
            <mxPoint x="530" y="1210" as="targetPoint" />
            <Array as="points">
              <mxPoint x="687" y="1210" />
            </Array>
          </mxGeometry>
        </mxCell>
        <mxCell id="v3DVIP-tIBE_nXOvIOAh-93" value="A.I. pick a location" style="whiteSpace=wrap;html=1;" vertex="1" parent="1">
          <mxGeometry x="626.75" y="885" width="120" height="60" as="geometry" />
        </mxCell>
        <mxCell id="v3DVIP-tIBE_nXOvIOAh-95" value="Yes" style="text;strokeColor=none;align=center;fillColor=none;html=1;verticalAlign=middle;whiteSpace=wrap;rounded=0;" vertex="1" parent="1">
          <mxGeometry x="560" y="880" width="60" height="30" as="geometry" />
        </mxCell>
        <mxCell id="v3DVIP-tIBE_nXOvIOAh-100" value="" style="edgeStyle=orthogonalEdgeStyle;rounded=0;orthogonalLoop=1;jettySize=auto;html=1;" edge="1" parent="1" target="v3DVIP-tIBE_nXOvIOAh-99">
          <mxGeometry relative="1" as="geometry">
            <mxPoint x="457.7931034482758" y="1095" as="sourcePoint" />
          </mxGeometry>
        </mxCell>
        <mxCell id="v3DVIP-tIBE_nXOvIOAh-98" value="No" style="text;strokeColor=none;align=center;fillColor=none;html=1;verticalAlign=middle;whiteSpace=wrap;rounded=0;" vertex="1" parent="1">
          <mxGeometry x="439.5" y="970" width="60" height="30" as="geometry" />
        </mxCell>
        <mxCell id="v3DVIP-tIBE_nXOvIOAh-103" value="" style="edgeStyle=orthogonalEdgeStyle;rounded=0;orthogonalLoop=1;jettySize=auto;html=1;" edge="1" parent="1" source="v3DVIP-tIBE_nXOvIOAh-99" target="v3DVIP-tIBE_nXOvIOAh-101">
          <mxGeometry relative="1" as="geometry" />
        </mxCell>
        <mxCell id="v3DVIP-tIBE_nXOvIOAh-105" style="edgeStyle=orthogonalEdgeStyle;rounded=0;orthogonalLoop=1;jettySize=auto;html=1;entryX=0.5;entryY=0;entryDx=0;entryDy=0;" edge="1" parent="1" source="v3DVIP-tIBE_nXOvIOAh-99" target="v3DVIP-tIBE_nXOvIOAh-83">
          <mxGeometry relative="1" as="geometry" />
        </mxCell>
        <mxCell id="v3DVIP-tIBE_nXOvIOAh-99" value="Check winner" style="rhombus;whiteSpace=wrap;html=1;" vertex="1" parent="1">
          <mxGeometry x="386.63" y="1170" width="142.25" height="80" as="geometry" />
        </mxCell>
        <mxCell id="v3DVIP-tIBE_nXOvIOAh-102" style="edgeStyle=orthogonalEdgeStyle;rounded=0;orthogonalLoop=1;jettySize=auto;html=1;exitX=1;exitY=0.5;exitDx=0;exitDy=0;entryX=1;entryY=0.5;entryDx=0;entryDy=0;" edge="1" parent="1" source="v3DVIP-tIBE_nXOvIOAh-101" target="v3DVIP-tIBE_nXOvIOAh-71">
          <mxGeometry relative="1" as="geometry">
            <mxPoint x="499.5" y="310" as="targetPoint" />
            <mxPoint x="505.0100000000002" y="1360" as="sourcePoint" />
            <Array as="points">
              <mxPoint x="885" y="1350" />
              <mxPoint x="885" y="300" />
            </Array>
          </mxGeometry>
        </mxCell>
        <mxCell id="v3DVIP-tIBE_nXOvIOAh-101" value="Next Player" style="whiteSpace=wrap;html=1;" vertex="1" parent="1">
          <mxGeometry x="397.76" y="1320" width="120" height="60" as="geometry" />
        </mxCell>
        <mxCell id="v3DVIP-tIBE_nXOvIOAh-104" value="No" style="text;strokeColor=none;align=center;fillColor=none;html=1;verticalAlign=middle;whiteSpace=wrap;rounded=0;" vertex="1" parent="1">
          <mxGeometry x="450" y="1270" width="60" height="30" as="geometry" />
        </mxCell>
        <mxCell id="v3DVIP-tIBE_nXOvIOAh-106" value="Yes" style="text;strokeColor=none;align=center;fillColor=none;html=1;verticalAlign=middle;whiteSpace=wrap;rounded=0;" vertex="1" parent="1">
          <mxGeometry x="311" y="1180" width="60" height="30" as="geometry" />
        </mxCell>
        <mxCell id="v3DVIP-tIBE_nXOvIOAh-108" value="&lt;h1&gt;&lt;font style=&quot;font-size: 18px;&quot;&gt;Game Target&lt;/font&gt;&lt;/h1&gt;&lt;p&gt;1. Basic Tic tac toe game&lt;br style=&quot;border-color: var(--border-color);&quot;&gt;2. Different GameMode ( Easy, Mid, Unbeat + PVP)&lt;br style=&quot;border-color: var(--border-color);&quot;&gt;3. Game Score&lt;br style=&quot;border-color: var(--border-color);&quot;&gt;4. Undo for player move&lt;br&gt;&lt;/p&gt;" style="text;html=1;strokeColor=none;fillColor=none;spacing=5;spacingTop=-20;whiteSpace=wrap;overflow=hidden;rounded=0;" vertex="1" parent="1">
          <mxGeometry x="810" y="115" width="320" height="120" as="geometry" />
        </mxCell>
        <mxCell id="v3DVIP-tIBE_nXOvIOAh-109" value="A.I. pick a location" style="rounded=0;whiteSpace=wrap;html=1;" vertex="1" parent="1">
          <mxGeometry x="620" y="365" width="120" height="60" as="geometry" />
        </mxCell>
        <mxCell id="v3DVIP-tIBE_nXOvIOAh-110" value="player X pick a location" style="shape=parallelogram;perimeter=parallelogramPerimeter;whiteSpace=wrap;html=1;fixedSize=1;" vertex="1" parent="1">
          <mxGeometry x="395.01" y="470" width="122.75" height="70" as="geometry" />
        </mxCell>
        <mxCell id="v3DVIP-tIBE_nXOvIOAh-112" value="Player O pick a location" style="shape=parallelogram;perimeter=parallelogramPerimeter;whiteSpace=wrap;html=1;fixedSize=1;" vertex="1" parent="1">
          <mxGeometry x="397.76" y="1040" width="120" height="70" as="geometry" />
        </mxCell>
        <mxCell id="v3DVIP-tIBE_nXOvIOAh-114" value="&lt;h1&gt;Game Flow Chart&lt;/h1&gt;" style="text;html=1;strokeColor=none;fillColor=none;spacing=5;spacingTop=-20;whiteSpace=wrap;overflow=hidden;rounded=0;" vertex="1" parent="1">
          <mxGeometry x="20" y="25" width="270" height="65" as="geometry" />
        </mxCell>
      </root>
    </mxGraphModel>
  </diagram>
</mxfile>
